<svg xmlns="http://www.w3.org/2000/svg" xmlns:xlink="http://www.w3.org/1999/xlink" viewBox="0 0 483.28 311.34"><defs><style>.cls-1{isolation:isolate;}.cls-2{fill:url(#linear-gradient);}.cls-18,.cls-3,.cls-5,.cls-6,.cls-7{mix-blend-mode:multiply;}.cls-3{fill:url(#linear-gradient-2);}.cls-17,.cls-26,.cls-4{fill:none;stroke-linecap:round;}.cls-4{stroke:#fff;}.cls-17,.cls-25,.cls-26,.cls-4{stroke-miterlimit:10;}.cls-5{fill:url(#linear-gradient-3);}.cls-6{fill:url(#linear-gradient-4);}.cls-7{fill:url(#linear-gradient-5);}.cls-8{fill:#cfdbff;}.cls-9{fill:#8885f7;}.cls-10{fill:#b4b3fc;}.cls-11{fill:#8385fc;}.cls-12{fill:url(#linear-gradient-6);}.cls-13{fill:url(#linear-gradient-7);}.cls-14{fill:#0e225c;}.cls-15{fill:#fff;}.cls-16{fill:#a6abfd;}.cls-17{stroke:#b0b1fb;}.cls-18{fill:url(#linear-gradient-8);}.cls-19{fill:#fa8fa4;}.cls-20{fill:#fa8098;}.cls-21{fill:#0a0a0f;}.cls-22{fill:#2e112e;}.cls-23,.cls-25{fill:#173796;}.cls-24{fill:#6970fb;}.cls-25{stroke:#0a0a0f;}.cls-26{stroke:#9da5fe;}.cls-27{fill:url(#linear-gradient-9);}.cls-28{fill:url(#linear-gradient-10);}</style><linearGradient id="linear-gradient" x1="114.94" y1="235.29" x2="508.44" y2="235.29" gradientUnits="userSpaceOnUse"><stop offset="0" stop-color="#919dff"/><stop offset="1" stop-color="#ffe5f5"/></linearGradient><linearGradient id="linear-gradient-2" x1="193.45" y1="179.43" x2="214.7" y2="351.38" xlink:href="#linear-gradient"/><linearGradient id="linear-gradient-3" x1="69.37" y1="228.23" x2="146.18" y2="363.17" xlink:href="#linear-gradient"/><linearGradient id="linear-gradient-4" x1="313.77" y1="357.48" x2="349.17" y2="357.48" xlink:href="#linear-gradient"/><linearGradient id="linear-gradient-5" x1="168.42" y1="259.87" x2="181.51" y2="365.73" xlink:href="#linear-gradient"/><linearGradient id="linear-gradient-6" x1="377.2" y1="293" x2="537.1" y2="293" xlink:href="#linear-gradient"/><linearGradient id="linear-gradient-7" x1="391.99" y1="384.43" x2="591.87" y2="213.88" xlink:href="#linear-gradient"/><linearGradient id="linear-gradient-8" x1="316.19" y1="233.89" x2="295.78" y2="382.6" xlink:href="#linear-gradient"/><linearGradient id="linear-gradient-9" x1="348.51" y1="319.99" x2="358.19" y2="319.99" xlink:href="#linear-gradient"/><linearGradient id="linear-gradient-10" x1="338.85" y1="332.09" x2="351.12" y2="332.09" xlink:href="#linear-gradient"/></defs><g class="cls-1"><g id="OBJECTS"><path class="cls-2" d="M114.94,83.09s80.42-19.22,142,32.82c85.09,72,28.61,177.43,127.18,168.86C488.33,275.7,508.44,391,508.44,391H114.94Z" transform="translate(-114.94 -79.62)"/><path class="cls-3" d="M193.31,385.06S171,204.9,206.69,194.39c38.25-11.26,7,190.67,7,190.67Z" transform="translate(-114.94 -79.62)"/><path class="cls-4" d="M207.56,217.23a746.12,746.12,0,0,0,2.06,121.41" transform="translate(-114.94 -79.62)"/><path class="cls-5" d="M164.42,384.29c-.1,0-5.34-109.68-49.48-138.82V384.29Z" transform="translate(-114.94 -79.62)"/><path class="cls-4" d="M121.53,296.43s14.33,33.07,19.93,87.86" transform="translate(-114.94 -79.62)"/><path class="cls-6" d="M313.77,384.29s10.18-58,28.91-53.36c21.26,5.24-16.51,53.36-16.51,53.36Z" transform="translate(-114.94 -79.62)"/><path class="cls-7" d="M198.51,384.29s-5.31-82.05-28.43-114.51c0,0-23.61,45.59,6.24,114.05Z" transform="translate(-114.94 -79.62)"/><path class="cls-8" d="M343.18,225.24h0a3.13,3.13,0,0,1-.51-4.39l2.67-3.38c1.07-1.36,2.48-2.14,3.84-1.07,0,0,2.52,2.49,4.19,1.72,1.9-.87,5.58-5,7.4-7.89C362.06,208.15,358,205,358,205c-1.35-1.08-.89-2.36.18-3.71l2.67-3.38a3.13,3.13,0,0,1,4.4-.52h0C375.8,205.79,357.3,232.68,343.18,225.24Z" transform="translate(-114.94 -79.62)"/><rect class="cls-9" x="365.42" y="288.65" width="86.76" height="16.02"/><rect class="cls-10" x="375.02" y="279.29" width="67.56" height="9.36"/><path class="cls-11" d="M500.23,343.66H375.74a2.56,2.56,0,0,1-2.46-3.23l25.06-92.2a8,8,0,0,1,7.71-5.9H530.53a2.56,2.56,0,0,1,2.47,3.23l-25.06,92.2A8,8,0,0,1,500.23,343.66Z" transform="translate(-114.94 -79.62)"/><path class="cls-12" d="M504.24,343.66H379.75a2.56,2.56,0,0,1-2.46-3.23l25.06-92.2a8,8,0,0,1,7.71-5.9H534.54a2.56,2.56,0,0,1,2.47,3.23L512,337.76A8,8,0,0,1,504.24,343.66Z" transform="translate(-114.94 -79.62)"/><path class="cls-13" d="M445.53,295.08,427,369.87a11.92,11.92,0,0,1-11.57,9.06h-15.2a2.68,2.68,0,0,0-2.68,2.68h0a2.68,2.68,0,0,0,2.68,2.68h40a10.48,10.48,0,0,0,10.19-8l19.16-79.87A2.75,2.75,0,0,0,467,293H448.19A2.74,2.74,0,0,0,445.53,295.08Z" transform="translate(-114.94 -79.62)"/><path class="cls-14" d="M594.93,390.89h-480v-6.6h480a3.3,3.3,0,0,1,3.3,3.3h0A3.3,3.3,0,0,1,594.93,390.89Z" transform="translate(-114.94 -79.62)"/><path class="cls-15" d="M148.08,208.79a16.64,16.64,0,0,0-4.89,29.91l0,7.5,5.23-5.18a16.66,16.66,0,1,0-.3-32.23Zm-.91,19a1.49,1.49,0,1,1,1-1.82A1.48,1.48,0,0,1,147.17,227.82Zm5.66-1.53a1.49,1.49,0,1,1,1-1.82A1.49,1.49,0,0,1,152.83,226.29Zm5.66-1.54a1.49,1.49,0,1,1,1-1.82A1.48,1.48,0,0,1,158.49,224.75Z" transform="translate(-114.94 -79.62)"/><path class="cls-15" d="M333.47,127.74l.49-2.11a9.58,9.58,0,0,1,11.49-7.18h0a9.57,9.57,0,0,1,7.18,11.48l0-.08a14.11,14.11,0,0,1-7,9.77l-1.83,1.14a10.21,10.21,0,0,0-4.53,6.35l-.87,3.79" transform="translate(-114.94 -79.62)"/><path class="cls-8" d="M338,153.07a2.22,2.22,0,0,1-1.67-2.67l.87-3.79a12.38,12.38,0,0,1,5.52-7.74l1.83-1.14a11.88,11.88,0,0,0,5.95-8.3h0a7.35,7.35,0,1,0-14.32-3.3l-.49,2.11a2.23,2.23,0,0,1-4.34-1l.48-2.11a11.81,11.81,0,0,1,23,5.2h0a16.23,16.23,0,0,1-7.95,11.18L345,142.65a7.93,7.93,0,0,0-3.53,5l-.88,3.79A2.22,2.22,0,0,1,338,153.07Z" transform="translate(-114.94 -79.62)"/><path class="cls-8" d="M339.27,158.78a2.45,2.45,0,1,1-1.84-2.93A2.44,2.44,0,0,1,339.27,158.78Z" transform="translate(-114.94 -79.62)"/><path class="cls-15" d="M223.65,134.88l0,.06a9.47,9.47,0,0,1-.87,7.92l-.69,1.27a6.78,6.78,0,0,0-.55,5.18l.73,2.5-2.3-2.6a8.18,8.18,0,0,1,.81-5.79l.69-1.27a7.92,7.92,0,0,0,.74-6.79,4.92,4.92,0,0,0-9.43,2.78l.41,1.39a1.48,1.48,0,0,1-.44,1.54l-1-1.12-.41-1.39a6.41,6.41,0,0,1,12.28-3.68Z" transform="translate(-114.94 -79.62)"/><path class="cls-15" d="M225.07,134.45l.06.17a10.88,10.88,0,0,1-1,8.95l-.69,1.27a5.3,5.3,0,0,0-.43,4l.73,2.5a1.49,1.49,0,0,1-1,1.85,1.5,1.5,0,0,1-1.86-1l-.73-2.5c0-.17-.1-.34-.14-.52a8.18,8.18,0,0,1,.81-5.79l.69-1.27a7.92,7.92,0,0,0,.74-6.79,4.92,4.92,0,0,0-9.43,2.78l.41,1.39a1.48,1.48,0,0,1-.44,1.54,1.37,1.37,0,0,1-.57.31,1.49,1.49,0,0,1-1.85-1l-.41-1.38a7.9,7.9,0,0,1,15.13-4.54Z" transform="translate(-114.94 -79.62)"/><path class="cls-15" d="M225.36,156.13a1.64,1.64,0,1,1-2-1.11A1.63,1.63,0,0,1,225.36,156.13Z" transform="translate(-114.94 -79.62)"/><polygon class="cls-15" points="57.78 92.6 37.59 87.11 41.18 73.89 49.48 83.24 61.38 79.37 57.78 92.6"/><polygon class="cls-15" points="52.66 71.55 45.14 69.51 43.76 74.59 49.94 81.56 58.79 78.67 60.17 73.59 52.66 71.55"/><rect class="cls-16" x="161" y="153.3" width="11.84" height="0.43" transform="translate(-68.86 -118.01) rotate(15.2)"/><rect class="cls-16" x="160.43" y="155.41" width="11.84" height="0.43" transform="translate(-68.33 -117.79) rotate(15.2)"/><path class="cls-4" d="M152.44,115.56a2.64,2.64,0,1,1-2.64-2.64A2.64,2.64,0,0,1,152.44,115.56Z" transform="translate(-114.94 -79.62)"/><path class="cls-4" d="M263,153.52a2.64,2.64,0,1,1-2.64-2.64A2.64,2.64,0,0,1,263,153.52Z" transform="translate(-114.94 -79.62)"/><path class="cls-17" d="M331.24,187.82a2.64,2.64,0,1,1-2.64-2.64A2.64,2.64,0,0,1,331.24,187.82Z" transform="translate(-114.94 -79.62)"/><path class="cls-18" d="M282,384.29s-1.75-89.73,34.27-124.06c0,0,16.77,42.31-8.62,124.06Z" transform="translate(-114.94 -79.62)"/><path class="cls-4" d="M307.88,287.33s2.63,35.95-10.14,89.52" transform="translate(-114.94 -79.62)"/><polygon class="cls-19" points="146.11 158.77 145.42 167.79 145.18 170.75 144.46 180.26 124.53 180.61 126.8 160.91 127.97 150.75 128.54 145.85 146.11 158.77"/><path class="cls-20" d="M260.36,247.41l-.23,3c-11.73,0-17.09-16.12-17.51-17.42l.29-2.57A35.44,35.44,0,0,0,260.36,247.41Z" transform="translate(-114.94 -79.62)"/><path class="cls-19" d="M369.23,275.41s9.3-10.33,16.77-11.11c2.75-.29-1.92,5.53-1.92,5.53h31.41s-1.17,3.86-3.51,5.58-27.9,9.29-27.9,9.29Z" transform="translate(-114.94 -79.62)"/><path class="cls-19" d="M274.05,202.84c2.71,2.06,7.23,4.41,7.87,7.76.58,3-5.46,12.93-2.6,16.76,5.31,7.13-5.62,17.19-9.5,19.86-9.31,6.43-33.23-12.49-25.13-37C250.84,191.58,266.19,196.84,274.05,202.84Z" transform="translate(-114.94 -79.62)"/><path class="cls-21" d="M245.88,199.58s25.09,17.37,37.47,10,.62-22,.62-22-2.74,5.12-11.76,2.15S246.53,184.9,245.88,199.58Z" transform="translate(-114.94 -79.62)"/><path class="cls-21" d="M256.66,197.75s-5.91-8.51-13.85-3.52c-6.05,3.8-4.74,24.88.72,32.91C243.53,227.14,243.66,202.36,256.66,197.75Z" transform="translate(-114.94 -79.62)"/><path class="cls-21" d="M260.79,203.09s-5,12-10.63,14.94c0,0,.51,6.48-5.33,6.5,0,0,1.77-2-.12-6.57a14.5,14.5,0,0,1-.93-3.08c-1.14-6.19,4.26-17.66,10.32-17S260.79,203.09,260.79,203.09Z" transform="translate(-114.94 -79.62)"/><path class="cls-19" d="M244.89,227.69s-4.28.48-6-3c-3.1-6.26,3.69-10,5.83-6.7Z" transform="translate(-114.94 -79.62)"/><path class="cls-15" d="M261.32,231s2.21,10.5,8,8.36c3.86-1.44,6.29-7.19,6.29-7.19Z" transform="translate(-114.94 -79.62)"/><path class="cls-22" d="M263.92,220.06c-.09,1.08-.51,1.93-.94,1.9s-.72-.94-.64-2,.51-1.94.94-1.9S264,219,263.92,220.06Z" transform="translate(-114.94 -79.62)"/><path class="cls-22" d="M276.86,221.21c-.09,1.08-.51,1.94-.94,1.9s-.72-.94-.64-2,.5-1.94.94-1.9S276.94,220.13,276.86,221.21Z" transform="translate(-114.94 -79.62)"/><path class="cls-23" d="M198.51,384.29s-27.95-89.22.91-109,47.92-23.59,77.45-11.69S291,384.29,291,384.29Z" transform="translate(-114.94 -79.62)"/><path class="cls-23" d="M267.67,303.72l46.05,41.78a26,26,0,0,0,40.2-6.61l30.16-54.19-14.85-9.29s-29.7,34.81-34.8,32-27-50.76-84.17-50.63C222.84,256.86,267.67,303.72,267.67,303.72Z" transform="translate(-114.94 -79.62)"/><path class="cls-23" d="M199.42,275.25s-28.95,22.53-46.52,66.53a31,31,0,0,0,28.72,42.51h64.49l-1.22-20-45-23S247,300.32,199.42,275.25Z" transform="translate(-114.94 -79.62)"/><path class="cls-24" d="M248.86,216.76s2.68-23.65,18-28.22a8.61,8.61,0,0,0-9.62-.72s-12.11,6.52-14.2,29.41Z" transform="translate(-114.94 -79.62)"/><path class="cls-21" d="M263,244.06a31.92,31.92,0,0,1-10.68-6.88,19.91,19.91,0,0,1-5.62-12.9l2.23-.1c0,.07.36,6.94,5.18,11.63a26.91,26.91,0,0,0,10.3,6.37l-.61,2.15C263.71,244.31,263.43,244.23,263,244.06Z" transform="translate(-114.94 -79.62)"/><path class="cls-21" d="M262.15,241.39a2.51,2.51,0,0,0,1.5,2.93,2.11,2.11,0,0,0,1.43-4A2.27,2.27,0,0,0,262.15,241.39Z" transform="translate(-114.94 -79.62)"/><ellipse class="cls-23" cx="128.62" cy="141.53" rx="9.88" ry="11.03"/><ellipse class="cls-9" cx="125.43" cy="141.53" rx="8.8" ry="9.82"/><path class="cls-15" d="M233.68,258.34l7.22-10.47,12.54,8.93,6.69-6.43,6.34,7.76-7,8.1-6.08-6.81L248,267.35S239.06,264.46,233.68,258.34Z" transform="translate(-114.94 -79.62)"/><path class="cls-25" d="M215.41,317.64l-15.28,24.11a6.48,6.48,0,0,0,3.26,9.56L248,367.53" transform="translate(-114.94 -79.62)"/><path class="cls-19" d="M246.11,384.29,248,370.84s23,6.62,24.43,7.85,5.65,5.6,5.65,5.6Z" transform="translate(-114.94 -79.62)"/><line class="cls-4" x1="84.74" y1="90.38" x2="83.58" y2="97.97"/><line class="cls-4" x1="87.98" y1="94.78" x2="80.4" y2="93.57"/><line class="cls-17" x1="276.94" y1="131.06" x2="275.77" y2="138.65"/><line class="cls-17" x1="280.17" y1="135.46" x2="272.59" y2="134.24"/><rect class="cls-4" x="16.12" y="104.45" width="6.11" height="6.11"/><rect class="cls-26" x="290.65" y="112.92" width="6.11" height="6.11" transform="translate(32.26 -243.38) rotate(40.81)"/><path class="cls-15" d="M365,345.32H338a3,3,0,0,0-3,3V366a19.59,19.59,0,0,0,3.45,11.11l3.3,4.81a5.44,5.44,0,0,0,4.48,2.36h10.56a5.45,5.45,0,0,0,4.51-2.39l3.88-5.75a16.85,16.85,0,0,0,2.88-9.4V348.34A3,3,0,0,0,365,345.32Z" transform="translate(-114.94 -79.62)"/><path class="cls-15" d="M348,371H333a9.23,9.23,0,1,1,0-18.45H348ZM333,356.58a5.16,5.16,0,1,0,0,10.31h11V356.58Z" transform="translate(-114.94 -79.62)"/><path class="cls-27" d="M352.43,333.89s-5.56-4.43-3.44-11.37,6.63-11.51,3.44-16.42c0,0,8,1.18,5.13,9.32S350,328.62,352.43,333.89Z" transform="translate(-114.94 -79.62)"/><path class="cls-28" d="M346.9,320s-5.45,7.93,0,13.9c6.45,7.06,3.6,10.31,3.6,10.31s-2-3.15-7.31-6.62C338.54,334.54,335,324.58,346.9,320Z" transform="translate(-114.94 -79.62)"/></g></g></svg>